<?xml version="1.0" encoding="iso-8859-1"?>
<!-- Uploaded to: SVG Repo, www.svgrepo.com, Generator: SVG Repo Mixer Tools -->
<svg fill="#000000" height="800px" width="800px" version="1.1" id="Layer_1" xmlns="http://www.w3.org/2000/svg" xmlns:xlink="http://www.w3.org/1999/xlink" 
	 viewBox="0 0 481.882 481.882" xml:space="preserve">
<g>
	<g>
		<path d="M140.442,45.176c-52.53,0-95.265,42.735-95.265,95.265c0,52.529,42.735,95.264,95.265,95.264
			c52.529,0,95.264-42.735,95.264-95.264C235.707,87.912,192.971,45.176,140.442,45.176z M196.228,147.971h-55.786
			c-4.159,0-7.529-3.368-7.529-7.529V61.67h15.059v71.243h48.257V147.971z"/>
	</g>
</g>
<g>
	<g>
		<path d="M476.655,386.706c-36.567-47.633-56.702-114.47-56.702-174.529v-52.338c0-68.654-52.198-124.89-118.834-128.036
			c-15.029-0.662-29.987,1.404-44.195,5.972c24.199,27.421,39.018,63.306,39.018,102.667c0,80.029-60.785,146.084-138.603,154.54
			c-9.633,30.306-24.487,66.552-43.805,91.725c-5.853,7.625-6.874,17.662-2.662,26.206c4.129,8.383,12.53,13.588,21.92,13.588
			h99.884c3.726,31.188,30.225,55.381,62.417,55.381c32.192,0,58.69-24.193,62.416-55.381h99.887
			c9.386,0,17.787-5.206,21.915-13.582C483.523,404.375,482.504,394.331,476.655,386.706z M425.835,392.927
			c-33.404-51.875-51.059-119.302-51.059-180.75v-52.338c0-43.742-33.996-80.941-75.786-82.912
			c-1.221-0.051-2.474-0.088-3.724-0.088V61.78c1.463,0,2.937,0.037,4.404,0.103c49.732,2.353,90.165,46.294,90.165,97.955v52.338
			c0,58.552,16.827,123.155,48.662,172.603L425.835,392.927z"/>
	</g>
</g>
<g>
	<g>
		<path d="M140.442,0C63.001,0,0.001,63,0.001,140.442c0,77.441,63,140.441,140.442,140.441c77.441,0,140.441-63,140.441-140.441
			C280.883,63,217.883,0,140.442,0z M140.442,250.765c-60.831,0-110.324-49.492-110.324-110.323S79.611,30.118,140.442,30.118
			s110.323,49.493,110.323,110.324S201.273,250.765,140.442,250.765z"/>
	</g>
</g>
</svg>